<?xml version="1.0" encoding="UTF-8"?>
<!-- Generator: Adobe Illustrator 15.1.0, SVG Export Plug-In  -->
<!DOCTYPE svg PUBLIC "-//W3C//DTD SVG 1.1//EN" "http://www.w3.org/Graphics/SVG/1.1/DTD/svg11.dtd">
<svg version="1.1" xmlns="http://www.w3.org/2000/svg" xmlns:xlink="http://www.w3.org/1999/xlink" xmlns:a="http://ns.adobe.com/AdobeSVGViewerExtensions/3.0/" x="0px" y="0px" width="89px" height="100px" viewBox="0 0 89 100" enable-background="new 0 0 89 100" xml:space="preserve">
<defs>
</defs>
<path fill="#FFFFFF" d="M44.443,0L0,25v50l44.443,25l44.444-25V25L44.443,0z M37.116,62.294h-6.311V41.99h6.311V62.294z   M33.919,39.5c-1.993,0-3.28-1.412-3.28-3.156c0-1.785,1.329-3.155,3.363-3.155c2.035,0,3.281,1.371,3.322,3.155  C37.323,38.087,36.036,39.5,33.919,39.5z M60.159,62.294h-6.311V51.042c0-2.616-0.915-4.401-3.198-4.401  c-1.743,0-2.781,1.205-3.237,2.367c-0.166,0.415-0.208,0.996-0.208,1.578v11.709h-6.312V48.467c0-2.533-0.083-4.649-0.166-6.477  h5.48l0.291,2.823h0.125c0.83-1.329,2.865-3.28,6.27-3.28c4.152,0,7.266,2.782,7.266,8.761V62.294z"/>
</svg>