<?xml version="1.0" encoding="utf-8"?>
<!-- Generator: Adobe Illustrator 15.1.0, SVG Export Plug-In  -->
<!DOCTYPE svg PUBLIC "-//W3C//DTD SVG 1.1//EN" "http://www.w3.org/Graphics/SVG/1.1/DTD/svg11.dtd" [
	<!ENTITY ns_flows "http://ns.adobe.com/Flows/1.0/">
]>
<svg version="1.1"
	 xmlns="http://www.w3.org/2000/svg" xmlns:xlink="http://www.w3.org/1999/xlink" xmlns:a="http://ns.adobe.com/AdobeSVGViewerExtensions/3.0/"
	 x="0px" y="0px" width="239px" height="71px" viewBox="-3 -0.887 239 71" enable-background="new -3 -0.887 239 71"
	 xml:space="preserve">
<defs>
</defs>
<rect x="70.807" y="17.777" fill="#636362" width="5.027" height="23.51"/>
<g>
	<defs>
		<rect id="SVGID_1_" width="233.333" height="69"/>
	</defs>
	<clipPath id="SVGID_2_">
		<use xlink:href="#SVGID_1_"  overflow="visible"/>
	</clipPath>
	<path clip-path="url(#SVGID_2_)" fill="#636362" d="M90.068,38.093c3.364,0,5.165-2.412,5.165-8.561
		c0-6.149-1.801-8.563-5.165-8.563c-3.328,0-5.197,2.413-5.197,8.563C84.871,35.681,86.808,38.093,90.068,38.093 M101.791,41.931
		l-3.024,3.976c-2.31-2.411-4.62-4.178-9.003-4.178c-6.148,0-10.158-4.35-10.158-12.196c0-7.679,4.009-12.299,10.462-12.299
		c6.457,0,10.431,4.417,10.431,12.299c0,5.707-2.514,8.629-5.504,10.293C97.951,39.826,99.989,40.642,101.791,41.931"/>
	<path clip-path="url(#SVGID_2_)" fill="#636362" d="M124.892,24.912l-1.836,2.819c-1.461-0.984-2.921-1.494-4.348-1.494
		c-1.733,0-2.616,0.645-2.616,1.63c0,1.053,0.612,1.529,3.771,2.447c3.6,0.984,5.639,2.48,5.639,5.671
		c0,3.738-3.499,5.845-7.78,5.845c-3.125,0-5.639-1.054-7.338-2.616l2.412-2.684c1.325,1.087,2.99,1.801,4.757,1.801
		c1.834,0,2.989-0.748,2.989-1.937c0-1.393-0.646-1.835-3.975-2.751c-3.634-1.021-5.333-2.821-5.333-5.539
		c0-3.058,2.786-5.368,7.135-5.368C120.985,22.738,123.193,23.552,124.892,24.912"/>
	<path clip-path="url(#SVGID_2_)" fill="#636362" d="M139.228,41.287l-0.238-2.411c-1.291,2.004-3.059,2.955-5.47,2.955
		c-3.329,0-5.027-2.141-5.027-5.605V23.281h4.824v12.333c0,1.969,0.646,2.616,1.969,2.616c1.325,0,2.448-0.884,3.297-2.345V23.281
		h4.823v18.006H139.228z"/>
	<path clip-path="url(#SVGID_2_)" fill="#636362" d="M159.544,32.284c0-4.518-1.155-5.979-3.229-5.979
		c-1.358,0-2.515,0.95-3.33,2.31v7.848c0.781,1.189,1.768,1.768,3.025,1.768C158.219,38.23,159.544,36.497,159.544,32.284
		 M164.572,32.25c0,5.505-2.616,9.581-7.135,9.581c-1.801,0-3.329-0.646-4.451-1.937v8.323l-4.823,0.544v-25.48h4.247l0.237,2.106
		c1.427-1.835,3.396-2.649,5.163-2.649C162.567,22.738,164.572,26.44,164.572,32.25"/>
	<path clip-path="url(#SVGID_2_)" fill="#636362" d="M179.792,32.284c0-4.518-1.155-5.979-3.229-5.979
		c-1.358,0-2.515,0.95-3.328,2.31v7.848c0.78,1.189,1.766,1.768,3.023,1.768C178.466,38.23,179.792,36.497,179.792,32.284
		 M184.82,32.25c0,5.505-2.617,9.581-7.135,9.581c-1.801,0-3.329-0.646-4.45-1.937v8.323l-4.824,0.544v-25.48h4.246l0.238,2.106
		c1.426-1.835,3.396-2.649,5.164-2.649C182.815,22.738,184.82,26.44,184.82,32.25"/>
	<path clip-path="url(#SVGID_2_)" fill="#636362" d="M192.599,32.284c0,4.146,1.222,5.945,3.601,5.945s3.601-1.834,3.601-5.945
		c0-4.144-1.222-5.944-3.567-5.944C193.821,26.34,192.599,28.173,192.599,32.284 M204.83,32.284c0,5.709-3.228,9.547-8.63,9.547
		c-5.367,0-8.628-3.568-8.628-9.547c0-5.741,3.227-9.546,8.661-9.546C201.602,22.738,204.83,26.305,204.83,32.284"/>
	<path clip-path="url(#SVGID_2_)" fill="#636362" d="M219.607,23.043l-0.814,4.655c-0.544-0.137-0.985-0.238-1.597-0.238
		c-2.209,0-3.229,1.63-3.874,4.519v9.308h-4.823V23.281h4.179l0.441,3.499c0.849-2.513,2.581-4.009,4.688-4.009
		C218.453,22.771,218.997,22.874,219.607,23.043"/>
	<path clip-path="url(#SVGID_2_)" fill="#636362" d="M228.644,41.831c-3.737-0.034-5.64-2.174-5.64-6.183v-8.969h-2.685v-3.398
		h2.685v-3.94l4.824-0.578v4.518h4.145l-0.475,3.398h-3.67v8.866c0,1.768,0.579,2.448,1.802,2.448c0.646,0,1.29-0.204,2.037-0.646
		l1.665,3.091C232.008,41.355,230.242,41.831,228.644,41.831"/>
</g>
<polygon fill="#E6382F" points="10.751,23.651 29.821,12.901 48.794,23.871 48.794,34.793 59.643,41.17 59.643,17.568 29.821,0 
	0,17.568 "/>
<polygon fill="#E6382F" points="10.751,31.531 10.751,25.899 0,19.815 0,25.212 "/>
<polygon fill="#E6382F" points="67.339,56.489 59.643,51.995 48.794,45.69 29.809,56.784 10.727,45.705 10.751,45.69 10.751,33.694 
	0,27.376 0,51.847 29.809,69 48.794,58.177 67.339,69 "/>
</svg>
